<?xml version="1.0" standalone="no"?>
<!DOCTYPE svg PUBLIC "-//W3C//DTD SVG 20010904//EN"
 "http://www.w3.org/TR/2001/REC-SVG-20010904/DTD/svg10.dtd">
<svg version="1.0" xmlns="http://www.w3.org/2000/svg"
 width="512.000000pt" height="512.000000pt" viewBox="0 0 512.000000 512.000000"
 preserveAspectRatio="xMidYMid meet">
<metadata>
Created by potrace 1.14, written by Peter Selinger 2001-2017
</metadata>
<g transform="translate(0.000000,512.000000) scale(0.100000,-0.100000)"
fill="#000000" stroke="none">
<path d="M4338 4885 c-2 -2 -25 -5 -53 -9 -69 -8 -184 -67 -239 -123 -88 -89
-126 -177 -131 -301 -8 -228 135 -408 365 -459 25 -5 143 -4 175 2 55 10 169
72 213 114 117 115 166 283 125 437 -44 170 -192 309 -352 330 -65 8 -100 11
-103 9z"/>
<path d="M2565 4651 c-76 -20 -126 -63 -543 -480 -237 -237 -442 -445 -455
-463 -56 -75 -70 -183 -36 -273 41 -110 138 -185 255 -198 51 -6 139 17 187
49 20 13 186 173 367 355 182 182 334 329 339 327 4 -2 109 -77 233 -166 l227
-164 -1461 -1460 c-1608 -1608 -1510 -1502 -1514 -1634 -5 -143 101 -278 237
-301 54 -9 52 -9 115 0 28 4 70 20 95 35 24 16 439 423 922 906 l877 877 235
-234 c129 -129 235 -237 235 -241 0 -3 -194 -200 -431 -437 -368 -368 -435
-440 -457 -488 -82 -179 27 -391 215 -418 79 -11 133 -4 194 28 21 10 282 263
593 575 424 424 563 568 583 608 22 41 27 65 27 126 2 132 -2 137 -408 543
-196 197 -356 360 -356 363 0 3 106 111 235 240 l235 235 1 -103 c0 -57 3
-116 5 -132 9 -51 52 -122 99 -164 88 -78 70 -76 780 -77 347 0 653 3 680 8
163 28 273 197 234 360 -26 110 -114 199 -219 223 -19 4 -246 8 -505 8 l-470
1 -5 340 -5 340 -27 50 c-14 28 -44 66 -65 86 -46 44 -1001 705 -1057 732 -43
21 -143 30 -191 18z"/>
<path d="M422 4432 c-46 -5 -108 -66 -118 -117 -10 -55 12 -111 59 -149 l38
-30 417 -1 c400 0 419 0 456 20 59 30 81 66 80 131 0 62 -21 97 -75 129 -32
18 -54 19 -429 20 -217 0 -410 -1 -428 -3z"/>
<path d="M120 3832 c-37 -5 -90 -50 -107 -90 -34 -81 16 -179 103 -200 46 -11
793 -9 841 2 64 15 115 105 98 173 -9 39 -52 92 -83 105 -25 10 -786 19 -852
10z"/>
<path d="M401 3223 c-112 -38 -133 -180 -38 -257 l38 -31 422 0 c403 0 424 1
456 20 55 32 76 69 75 131 0 62 -21 97 -75 129 -32 19 -53 20 -438 20 -292 0
-415 -3 -440 -12z"/>
</g>
</svg>
